<svg id="Icons" height="512" viewBox="0 0 74 74" width="512" xmlns="http://www.w3.org/2000/svg"><path d="m39.282 58.394a9.961 9.961 0 0 1 -6.166-2.6c-3.824-3.1-5.605-8.889-7.124-17.194a42.764 42.764 0 0 1 -9.88.574l-.087.315c-.7 2.541-4.781 1.86-5.244 1.773a.992.992 0 0 1 -.141-.037 2.539 2.539 0 0 0 -2.1.207l-.3.176a5.421 5.421 0 0 1 -5.2.143 1.832 1.832 0 0 1 .047-3.329l7.488-3.6a74.343 74.343 0 0 1 8.525-3.153l7.645-2.635a4.237 4.237 0 0 1 4.609 1.466l8.084 10.64a6.482 6.482 0 0 1 .837 1.488 12.593 12.593 0 0 0 6.87 7.02 1 1 0 0 1 .583 1.265c-.085.242-2.138 5.951-6.644 7.226a6.607 6.607 0 0 1 -1.802.255zm-11.341-20.252c1.7 9.293 3.469 13.7 6.435 16.1 2.253 1.828 4.324 2.491 6.159 1.976 2.6-.733 4.258-3.642 4.944-5.11a14.8 14.8 0 0 1 -7.057-7.726 4.494 4.494 0 0 0 -.576-1.029l-8.085-10.64a2.22 2.22 0 0 0 -2.4-.778l-7.645 2.635a72.748 72.748 0 0 0 -8.3 3.076l-7.184 3.454a3.426 3.426 0 0 0 3-.215l.3-.176a4.532 4.532 0 0 1 3.671-.395c1.222.211 2.76.1 2.886-.351l.3-1.086a1 1 0 0 1 1.018-.732 39.953 39.953 0 0 0 10.957-.666 1 1 0 0 1 .243-.075 1.047 1.047 0 0 1 .134-.015 10.557 10.557 0 0 0 2.515-.878 1 1 0 0 1 1.043 1.707 10.22 10.22 0 0 1 -2.358.924z"/><path d="m15.361 39.142a1 1 0 0 1 -1-.922l-.316-4.05a1 1 0 1 1 1.994-.155l.316 4.05a1 1 0 0 1 -.919 1.075z"/><path d="m46.786 51.586a1 1 0 0 1 -.593-1.806l13.213-9.708a3.99 3.99 0 0 0 .076-6.374l-7.448-5.811a1 1 0 1 1 1.23-1.577l7.443 5.808a5.99 5.99 0 0 1 -.117 9.565l-13.213 9.709a.994.994 0 0 1 -.591.194z"/><path d="m55.6 38.684a1 1 0 0 1 -.382-.077 6.3 6.3 0 0 1 -3.752-4.457l-4.55-5.18a4.4 4.4 0 0 1 3.305-7.3h12.122a5.434 5.434 0 0 0 1.39-.181l5.67-1.505a1.408 1.408 0 0 1 1.423 2.285l-1.976 2.268a6.373 6.373 0 0 1 -4.073 2.148l-12.724 1.49a1 1 0 0 1 -.232-1.986l12.723-1.489a4.381 4.381 0 0 0 2.8-1.476l.707-.812-3.8 1.009a7.407 7.407 0 0 1 -1.9.249h-12.133a2.4 2.4 0 0 0 -1.8 3.981l4.729 5.384a1 1 0 0 1 .241.538 4.3 4.3 0 0 0 2.594 3.187 1 1 0 0 1 -.383 1.924z"/><path d="m39.487 44.336a1 1 0 0 1 -.644-1.766l4.208-3.532a11.737 11.737 0 0 1 8.4-7.108 1 1 0 0 1 .49 1.939 9.622 9.622 0 0 0 -7.072 6.031 1.021 1.021 0 0 1 -.317.487l-4.423 3.713a1 1 0 0 1 -.642.236z"/><path d="m62.031 41.829a4.371 4.371 0 0 1 -1.233-.178l-.632-.185a1 1 0 0 1 .561-1.92l.633.185a2.363 2.363 0 0 0 2.853-1.366l5.35-12.923a5.75 5.75 0 0 0 -3.092-7.493 4.41 4.41 0 0 0 -5.722 2.227l-1.349 2.913a1 1 0 1 1 -1.815-.84l1.347-2.912a6.406 6.406 0 0 1 8.308-3.237 7.753 7.753 0 0 1 4.169 10.1l-5.349 12.931a4.36 4.36 0 0 1 -4.029 2.698z"/><path d="m65.172 23.142a1 1 0 0 1 -.925-.619 4.692 4.692 0 0 0 -3.76-2.916 1 1 0 0 1 .144-1.995 6.69 6.69 0 0 1 5.469 4.148 1 1 0 0 1 -.924 1.382z"/><path d="m62.182 31.247c-.062 0-.125 0-.189 0a4.876 4.876 0 0 1 -4.7-4.752 1 1 0 0 1 2-.105 2.927 2.927 0 0 0 2.787 2.859c2.576.083 3.092-4.033 3.1-4.075a1 1 0 0 1 1.987.228c-.242 2.043-1.581 5.845-4.985 5.845z"/><path d="m57.4 31.826a1 1 0 0 1 -.778-1.627l1.7-2.107a1 1 0 0 1 1.557 1.255l-1.7 2.107a1 1 0 0 1 -.779.372z"/><path d="m61.983 37.175a1 1 0 0 1 -1-.955c-.206-4.6 1.918-6.957 2.008-7.055a1 1 0 0 1 1.476 1.349c-.079.089-1.652 1.917-1.486 5.616a1 1 0 0 1 -.954 1.044z"/><path d="m51.274 48.287a1 1 0 0 1 -.721-.307l-7.366-7.663a1 1 0 1 1 1.442-1.386l7.371 7.663a1 1 0 0 1 -.721 1.693z"/></svg>