<?xml version="1.0"?>
<svg xmlns="http://www.w3.org/2000/svg" id="Icons" viewBox="0 0 74 74" width="512" height="512"><path d="M61.034,57.244H59.643a6.869,6.869,0,0,1-6.624-5.083L50.133,41.395a3.1,3.1,0,0,1-.1-.956l0-.151a11.842,11.842,0,0,1-7.231.519L9.938,48.482a1.294,1.294,0,0,0-.5.815,4.248,4.248,0,0,0,.847,2.624l1.036,1.109A1.882,1.882,0,0,1,9.949,56.2H9.524a5.267,5.267,0,0,1-4.57-2.66L2.507,49.231a3.867,3.867,0,0,1,2.021-5.539l20.289-7.618c5.037-5.562,9.457-4.971,10.854-4.592l14.1-6.321a5.7,5.7,0,0,1,8.009,5.752l-.7,7.2a9.353,9.353,0,0,0,.013,1.914L58.082,49a5.458,5.458,0,0,0,2.645,4.088l1.239.729a1.838,1.838,0,0,1-.932,3.422ZM51.291,31.419a3.261,3.261,0,0,0,.367,3.667,2.193,2.193,0,0,1,.5,1.414l-.13,4.024a1.1,1.1,0,0,0,.034.354L54.95,51.644a4.865,4.865,0,0,0,4.692,3.6h.8l-.728-.428a7.465,7.465,0,0,1-3.619-5.593L55.1,40.25a11.279,11.279,0,0,1-.015-2.325l.7-7.2a3.7,3.7,0,0,0-5.2-3.735L36.139,33.464a1,1,0,0,1-.8.008c-.157-.062-4.153-1.569-9.192,4.116a.993.993,0,0,1-.4.273L5.226,45.567a1.868,1.868,0,0,0-.98,2.676l2.447,4.306A3.264,3.264,0,0,0,9.524,54.2h.153l-.895-.958a.9.9,0,0,1-.073-.088,6.229,6.229,0,0,1-1.24-4.188,3.349,3.349,0,0,1,1.484-2.238.981.981,0,0,1,.332-.145l33.3-7.777a.994.994,0,0,1,.5.012c.041.011,4.147,1.133,7.023-.865l.05-1.539c-.015.016-.094-.106-.145-.18a5.189,5.189,0,0,1-.369-5.957,1,1,0,0,1,1.641,1.144Z"/><path d="M42.815,40.778a1,1,0,0,1-.96-.726l-2.639-9.22a1,1,0,1,1,1.922-.55l2.639,9.22a1,1,0,0,1-.962,1.275Z"/><path d="M37.975,41.95a1,1,0,0,1-.965-.742l-2.246-8.4a1,1,0,1,1,1.932-.517l2.246,8.4a1,1,0,0,1-.967,1.259Z"/><path d="M69.646,27.455A2.028,2.028,0,0,1,68,26.614L66.78,24.931A4.183,4.183,0,0,0,60.8,24.1l-2.294,1.8a1,1,0,0,1-.315.167l-3.531,1.124a1,1,0,1,1-.605-1.906l3.358-1.068,2.15-1.692A6.184,6.184,0,0,1,68.4,23.756l1.222,1.684.317-1.459a4.046,4.046,0,0,0-.437-2.644,4.988,4.988,0,0,0-6.21-2.224l-10.57,4.219a3.157,3.157,0,0,0-2,2.947,1,1,0,0,1-2,0,5.146,5.146,0,0,1,3.256-4.8l10.569-4.219a6.99,6.99,0,0,1,8.7,3.117,6.048,6.048,0,0,1,.654,3.958l-.256,1.446a2.038,2.038,0,0,1-2,1.68Z"/><path d="M63.044,30.683a4.831,4.831,0,0,1-4.112-2.3l-.263-.423a4.411,4.411,0,0,1-.037-4.614,1,1,0,1,1,1.715,1.027,2.422,2.422,0,0,0,.021,2.531l.263.423a2.838,2.838,0,0,0,3.848.965l4.7-2.713a1,1,0,1,1,1,1.732l-4.7,2.713A4.86,4.86,0,0,1,63.044,30.683Z"/><path d="M56.752,32.133a1,1,0,0,1-.58-1.815l3.61-2.563a1,1,0,0,1,1.158,1.631l-3.61,2.563A1,1,0,0,1,56.752,32.133Z"/><path d="M12.822,47.754a1,1,0,0,1-.907-.577L9.9,42.859a1,1,0,0,1,1.813-.846l2.014,4.318a1,1,0,0,1-.905,1.423Z"/></svg>
