<?xml version="1.0"?>
<svg xmlns="http://www.w3.org/2000/svg" id="outline" viewBox="0 0 512 512" width="512" height="512"><path d="M488,144H464a7.99975,7.99975,0,0,0-7.42773,5.02881L442.584,184H328a7.99979,7.99979,0,0,0-7.15527,4.42236l-16,32A7.99928,7.99928,0,0,0,312,232H440V408H408a7.99923,7.99923,0,0,0-6.50977,3.3501L392,424.63641V424H376v-8a7.99927,7.99927,0,0,0-3.2002-6.3999l-29.126-21.84473-6.72754-80.73877a40.04939,40.04939,0,0,0-11.57813-24.96191l-67.98144-67.98145,5.95264-14.88116A47.118,47.118,0,0,0,272,200a46.32525,46.32525,0,0,0,32.9707-13.65674l49.373-49.373a24.02666,24.02666,0,0,0,0-33.94042l-4.68652-4.68653a8.00122,8.00122,0,0,0-11.31446,0L336,100.68652l-.22559-.22607A15.12506,15.12506,0,0,0,325.00684,96a15.29494,15.29494,0,0,0-14.25489,9.87939l-5.33691,14.229-31.75,21.1665-4.55078-5.6886A32.04763,32.04763,0,0,0,296,104V80a31.97722,31.97722,0,0,0-46.66895-28.42517l-1.18554-1.77795A39.8828,39.8828,0,0,0,214.89258,32a53.00467,53.00467,0,0,0-31.60645,10.53564,36.89986,36.89986,0,0,1-35.627,4.71192l-16.6875-6.67529a8.00016,8.00016,0,0,0-9.832,11.54345l10.59082,17.65186A54.30658,54.30658,0,0,0,178.0625,96a53.85868,53.85868,0,0,0,29.97168-9.07471,22.33408,22.33408,0,0,1,19.57812-2.62207L232,85.76593V104c0,.03571.00391.07074.00391.10645L232,104.10614V104H187.88184a55.63289,55.63289,0,0,0-39.59766,16.40234l-40.665,40.66553a24.06237,24.06237,0,0,0-2.999,30.28369l8.72363,13.08594a7.99647,7.99647,0,0,0,10.23437,2.71777l10.8418-5.42089,2.26856,2.26855A13.65738,13.65738,0,0,0,160,194.34326V179.31348l27.40625-27.40625,5.23315-.14777-5.19213,28.557a51.16105,51.16105,0,0,1-14.22266,27.145,67.553,67.553,0,0,0-17.14453,29.13818l-9.00391,31.51318-62.21191-34.562-15.207-15.20752a8.00027,8.00027,0,0,0-11.80274.53516l-40,48a7.99931,7.99931,0,0,0,.48828,10.77832l8,8a7.99606,7.99606,0,0,0,7.22657,2.188l36.49218-7.29883,49.1211,36.84082A53.3953,53.3953,0,0,0,151.02246,328a52.76523,52.76523,0,0,0,45-24.94141L217.76367,268.272l62.85938,55.874L296,408.72119V424H48a8.00091,8.00091,0,0,0-6.86035,3.88428l-24,40A8,8,0,0,0,24,480H488a8.00008,8.00008,0,0,0,8-8V152A8.00008,8.00008,0,0,0,488,144Zm-18.584,16H480v24H459.81641ZM332.94434,200H480v16H324.94434Zm-89.32764,5.41779L202.20728,187.671c.374-1.48157.70678-2.97784.98217-4.49225l5.04346-27.73859c.46851.532.949,1.056,1.45459,1.56183l29.34277,29.3418a46.90773,46.90773,0,0,0,9.32373,7.23Zm32.8208-46.76154,40-26.6665a8.00052,8.00052,0,0,0,3.05273-3.84717l5.82032-15.51856,5.03222,5.03272a8.00122,8.00122,0,0,0,11.31446,0L343.917,115.397a8.0118,8.0118,0,0,1-.88769,10.25977L293.65723,175.0293a30.6274,30.6274,0,0,1-43.31348.00049L221.002,145.689A16.96976,16.96976,0,0,1,216,133.6123a13.61255,13.61255,0,0,1,24.24219-8.50341l25.51074,31.88867A8,8,0,0,0,276.4375,158.65625ZM280,104a15.98392,15.98392,0,0,1-26.53979,12.01855l-.72388-.90478a30.02848,30.02848,0,0,0-2.1438-2.39862A15.87435,15.87435,0,0,1,248,104v-.04688A36.68819,36.68819,0,0,0,273.05273,92.3667L280,99.31348Zm-.47119-27.78516-1.87158-1.87158a8,8,0,0,0-12.8125,2.07862A20.80924,20.80924,0,0,1,248,87.90643V80a15.99048,15.99048,0,0,1,31.52881-3.78516Zm-80.36963-2.602a38.03035,38.03035,0,0,1-52.17383-9.72412A53.03559,53.03559,0,0,0,192.88574,55.335,36.91135,36.91135,0,0,1,214.89258,48,23.91619,23.91619,0,0,1,234.833,58.67236l2.47265,3.70874a31.91751,31.91751,0,0,0-3.52539,7.11292l-1.10839-.36951A38.23374,38.23374,0,0,0,199.15918,73.61279Zm-15.38477,62.39063a8,8,0,0,0-5.43164,2.33984l-32,32A8.00035,8.00035,0,0,0,144,176v12.68652l-2.34277-2.34326a8.00167,8.00167,0,0,0-9.23535-1.49853l-9.68262,4.84131-4.80664-7.21a8.02041,8.02041,0,0,1,1-10.09423l40.666-40.666A39.73587,39.73587,0,0,1,187.88184,120h15.4458a29.39751,29.39751,0,0,0-1.99488,4.81934,45.77921,45.77921,0,0,0-5.27783,10.83728ZM64.53711,235.85107l6.60351,6.6034L65.46729,265.148l-30.4126,6.08252ZM151.02246,312a37.30031,37.30031,0,0,1-22.24023-7.41309L81.04907,268.78705l4.18238-16.72931,62.88378,34.93542a7.99973,7.99973,0,0,0,11.57715-4.79541l2.208-7.7279,24.08838,14.45306-3.53467,5.6557A36.85439,36.85439,0,0,1,151.02246,312Zm63.83887-63.91846a8.001,8.001,0,0,0-5.64551,3.67823L194.47021,275.3526l-28.01855-16.81128,5.01318-17.5462a51.50642,51.50642,0,0,1,13.07422-22.22022,67.32186,67.32186,0,0,0,11.93506-16.15381l46.95776,20.12476L268.686,248l-23.36231,23.36218-24.00928-21.34167A7.99515,7.99515,0,0,0,214.86133,248.08154Zm81.00976,70.48731a8.002,8.002,0,0,0-2.55664-4.54834l-36.01123-32.00989L280,259.314l34.05469,34.05469A24.02511,24.02511,0,0,1,321.001,308.3457l6.57666,78.92121-17.61475,8.80725ZM312,412.94434l23.15576-11.57782L360,420v4H312ZM52.5293,440H381.02588L363.8833,464H38.12988ZM480,464H383.5459l28.57129-40H480Zm0-56H456V232h24Z"/></svg>
